<svg xmlns="http://www.w3.org/2000/svg" viewBox="0 0 128 128">
  <defs>
    <linearGradient id="gradient" x1="0%" y1="0%" x2="100%" y2="100%">
      <stop offset="0%" stop-color="#FF9A8B" />
      <stop offset="100%" stop-color="#FF6B95" />
    </linearGradient>
  </defs>
  <circle cx="64" cy="64" r="60" fill="url(#gradient)" />
  <path d="M40 48c0-8.837 7.163-16 16-16s16 7.163 16 16c0 8.837-7.163 16-16 16S40 56.837 40 48zm48 0c0-8.837 7.163-16 16-16s16 7.163 16 16c0 8.837-7.163 16-16 16s-16-7.163-16-16zm-56 32c0 17.673 14.327 32 32 32 17.673 0 32-14.327 32-32H32z" fill="white" />
  <style>
    @media (prefers-color-scheme: dark) {
      circle { fill: url(#gradient); }
      path { fill: white; }
    }
    @media (prefers-color-scheme: light) {
      circle { fill: url(#gradient); }
      path { fill: white; }
    }
  </style>
</svg>
